# xmcd
#
# Track frame offsets: 
#        150
#        16832
#        35112
#        52500
#        76007
#
# Disc length: 1189 seconds
#
# Revision: 2
# Processed by: cddbd v1.5PL3 Copyright (c) Steve Scherf et al.
# Submitted via: ExactAudioCopy v0.95a4
#
DISCID=2804a305
DTITLE=Montgomery Gentry - You Do Your Thing - Bonus Disk
DYEAR=2004
DGENRE=
TTITLE0=Didn't I (Live)
TTITLE1=Merry Christmas From The Family (Live)
TTITLE2=Just Got Paid (Live)
TTITLE3=Wanted Dead Or Alive (Live)
TTITLE4=(I'm A) Ramblin' Man (Live)
EXTD=
EXTT0=
EXTT1=
EXTT2=
EXTT3=
EXTT4=
PLAYORDER=
